<svg version="1.1" xmlns="http://www.w3.org/2000/svg" xmlns:xlink="http://www.w3.org/1999/xlink" width="500" height="500"><g data-paper-data="{&quot;description&quot;:&quot;Logo for Adrian Estran\n======================\n\nThis logo was generated by MarkMaker at http://emblemmatic.org/markmaker/ and may be composed of elements designed by others.\n\nThe font is Overlock-Bold designed by Dario Manuel Muhafara and released under the OFL license via Google Fonts: https://www.google.com/fonts/specimen/Overlock. The font includes this copyright statement: Copyright (c) 2011, Dario Manuel Muhafara (http://www.tipo.net.ar dario@tipo.net.ar), with Reserved Font Name \\\&quot;Overlock\\\&quot;.\n\nMarkMaker uses semantic data from the Princeton University WordNet database http://wordnet.princeton.edu and font descriptions from Google Fonts https://www.google.com/fonts.&quot;}" fill="#000000" fill-rule="nonzero" stroke="none" stroke-width="1" stroke-linecap="butt" stroke-linejoin="miter" stroke-miterlimit="10" stroke-dasharray="" stroke-dashoffset="0" font-family="none" font-weight="none" font-size="none" text-anchor="none" style="mix-blend-mode: normal"><g data-paper-data="{&quot;elementType&quot;:&quot;logo&quot;}"><g data-paper-data="{&quot;elementType&quot;:&quot;text&quot;}"><g data-paper-data="{&quot;baseline&quot;:67.3}"><g data-paper-data="{&quot;baselineProportion&quot;:0.9697406340057637,&quot;fontSize&quot;:100,&quot;baseline&quot;:67.3,&quot;elementType&quot;:&quot;word&quot;}"><path d="M88.0984,213.46928c-2.30496,0 -7.0922,-0.08865 -14.3617,-0.26596c-5.76241,14.80496 -9.30851,24.64539 -10.6383,29.52128c-7.89007,-0.88652 -11.83511,-2.7039 -11.83511,-5.45213c0,-1.24113 1.88387,-6.27216 5.6516,-15.09309c3.76773,-8.82092 8.3555,-20.05762 13.7633,-33.71011c5.4078,-13.65248 9.66312,-25.75355 12.76596,-36.30319c1.77305,-0.26596 4.07801,-0.39894 6.91489,-0.39894c2.30496,0 4.10018,0.46543 5.38564,1.39628c1.28546,0.93085 2.41578,2.81472 3.39096,5.6516c6.82624,21.2766 11.79078,35.90426 14.89362,43.88298c6.64894,17.28723 11.6578,29.25532 15.0266,35.90426c-3.36879,1.77305 -6.20567,2.65957 -8.51064,2.65957c-3.7234,0 -6.29433,-1.19681 -7.71277,-3.59043c-1.06383,-2.74823 -2.54876,-6.80408 -4.45479,-12.16755c-1.90603,-5.36348 -3.39096,-9.46365 -4.45479,-12.30053c-8.68794,0.1773 -13.96277,0.26596 -15.82447,0.26596zM100.46543,203.49588c-1.32979,-3.63475 -2.63741,-7.42465 -3.92287,-11.36968c-1.28546,-3.94504 -2.63741,-8.17819 -4.05585,-12.69947c-1.41844,-4.52128 -2.39362,-7.62411 -2.92553,-9.30851c-4.25532,13.38652 -8.15603,24.46809 -11.70213,33.24468c5.67376,0.1773 10.01773,0.26596 13.03191,0.26596c4.60993,0 7.80142,-0.04433 9.57447,-0.13298" data-paper-data="{&quot;elementType&quot;:&quot;letter&quot;,&quot;baseline&quot;:66.3,&quot;baselineProportion&quot;:0.9692982456140352,&quot;fontSize&quot;:100}"></path><path d="M130.78457,232.88418c1.24113,-8.06738 1.95035,-22.96099 2.12766,-44.68085c0,-15.51418 -0.57624,-27.57092 -1.72872,-36.17021c5.58511,-1.06383 12.72163,-1.59574 21.40957,-1.59574c7.18085,0 13.63032,0.75355 19.3484,2.26064c5.71809,1.50709 10.94858,3.92287 15.69149,7.24734c4.74291,3.32447 8.42199,8.00089 11.03723,14.02926c2.61525,6.02837 3.92287,13.25355 3.92287,21.67553c0,13.29787 -3.67908,24.22429 -11.03723,32.77926c-7.35816,8.55496 -17.86348,12.83245 -31.51596,12.83245c-12.58865,0 -22.34043,-2.79255 -29.25532,-8.37766M146.21011,161.20864c0.35461,5.76241 0.53191,12.54433 0.53191,20.34574c0,18.35106 -0.62057,33.15603 -1.8617,44.41489c4.25532,3.10284 9.53014,4.65426 15.82447,4.65426c4.96454,0 9.26418,-0.99734 12.89894,-2.99202c3.63475,-1.99468 6.40514,-4.65426 8.31117,-7.97872c1.90603,-3.32447 3.3023,-6.78191 4.18883,-10.37234c0.88652,-3.59043 1.32979,-7.33599 1.32979,-11.2367c0,-12.41135 -2.90337,-21.74202 -8.71011,-27.99202c-5.80674,-6.25 -14.11791,-9.375 -24.93351,-9.375c-1.6844,0 -4.21099,0.1773 -7.57979,0.53191z" data-paper-data="{&quot;elementType&quot;:&quot;letter&quot;,&quot;baseline&quot;:67.3,&quot;baselineProportion&quot;:0.9853587115666178,&quot;fontSize&quot;:100}"></path><path d="M264.42819,227.29907c2.03901,2.48227 4.3883,3.7234 7.04787,3.7234c0.97518,0 1.99468,-0.13298 3.05851,-0.39894c0.79787,1.8617 1.19681,3.41312 1.19681,4.65426c0,2.03901 -1.08599,3.5461 -3.25798,4.52128c-2.17199,0.97518 -4.8094,1.46277 -7.91223,1.46277c-5.14184,0 -9.70745,-2.5266 -13.69681,-7.57979c-2.74823,-3.45745 -5.62943,-8.22252 -8.64362,-14.29521c-3.01418,-6.0727 -5.36348,-11.36968 -7.04787,-15.89096c-2.03901,-0.79787 -3.05851,-2.21631 -3.05851,-4.25532c0,-1.6844 0.35461,-3.41312 1.06383,-5.18617c1.41844,0.35461 3.05851,0.53191 4.92021,0.53191c4.78723,0 8.79876,-1.4406 12.03457,-4.32181c3.23582,-2.88121 4.85372,-7.15869 4.85372,-12.83245c0,-6.29433 -1.55142,-10.66046 -4.65426,-13.0984c-3.10284,-2.43794 -7.9344,-3.65691 -14.49468,-3.65691c-2.39362,0 -5.27482,0.1773 -8.64362,0.53191c0.35461,4.96454 0.53191,13.78546 0.53191,26.46277v25.93085c0,11.70213 0.8422,20.25709 2.5266,25.66489c-1.95035,0.70922 -4.69858,1.06383 -8.24468,1.06383c-3.28014,0 -5.51862,-0.57624 -6.71543,-1.72872c-1.19681,-1.15248 -1.79521,-3.10284 -1.79521,-5.85106c0,-1.41844 0.04433,-4.92021 0.13298,-10.50532c0.08865,-5.58511 0.13298,-9.92908 0.13298,-13.03191v-26.59574c0,-12.23404 -0.57624,-22.42908 -1.72872,-30.58511c6.82624,-1.06383 13.78546,-1.59574 20.87766,-1.59574c24.91135,0 37.36702,8.99823 37.36702,26.99468c0,6.82624 -1.83954,12.47784 -5.51862,16.95479c-3.67908,4.47695 -8.5328,7.5133 -14.56117,9.10904c5.76241,12.3227 10.50532,20.25709 14.22872,23.80319z" data-paper-data="{&quot;elementType&quot;:&quot;letter&quot;,&quot;baseline&quot;:67.3,&quot;baselineProportion&quot;:0.9853587115666178,&quot;fontSize&quot;:100}"></path><path d="M281.05053,209.21396v-26.59574c0,-12.3227 -0.31028,-22.51773 -0.93085,-30.58511c2.65957,-0.44326 5.00887,-0.66489 7.04787,-0.66489c5.93972,0 8.90957,1.6844 8.90957,5.05319c0,0.53191 -0.08865,2.32713 -0.26596,5.38564c-0.1773,3.05851 -0.35461,6.87057 -0.53191,11.43617c-0.1773,4.5656 -0.26596,8.88741 -0.26596,12.96543v26.72872c0,11.79078 0.8422,20.47872 2.5266,26.06383c-2.48227,0.88652 -5.2305,1.32979 -8.24468,1.32979c-3.28014,0 -5.51862,-0.57624 -6.71543,-1.72872c-1.19681,-1.15248 -1.79521,-3.10284 -1.79521,-5.85106c0,-1.41844 0.04433,-4.92021 0.13298,-10.50532c0.08865,-5.58511 0.13298,-9.92908 0.13298,-13.03191z" data-paper-data="{&quot;elementType&quot;:&quot;letter&quot;,&quot;baseline&quot;:66.60000000000001,&quot;baselineProportion&quot;:0.9955156950672647,&quot;fontSize&quot;:100}"></path><path d="M338.7633,213.46928c-2.30496,0 -7.0922,-0.08865 -14.3617,-0.26596c-5.76241,14.80496 -9.30851,24.64539 -10.6383,29.52128c-7.89007,-0.88652 -11.83511,-2.7039 -11.83511,-5.45213c0,-1.24113 1.88387,-6.27216 5.6516,-15.09309c3.76773,-8.82092 8.3555,-20.05762 13.7633,-33.71011c5.4078,-13.65248 9.66312,-25.75355 12.76596,-36.30319c1.77305,-0.26596 4.07801,-0.39894 6.91489,-0.39894c2.30496,0 4.10018,0.46543 5.38564,1.39628c1.28546,0.93085 2.41578,2.81472 3.39096,5.6516c6.82624,21.2766 11.79078,35.90426 14.89362,43.88298c6.64894,17.28723 11.6578,29.25532 15.0266,35.90426c-3.36879,1.77305 -6.20567,2.65957 -8.51064,2.65957c-3.7234,0 -6.29433,-1.19681 -7.71277,-3.59043c-1.06383,-2.74823 -2.54876,-6.80408 -4.45479,-12.16755c-1.90603,-5.36348 -3.39096,-9.46365 -4.45479,-12.30053c-8.68794,0.1773 -13.96277,0.26596 -15.82447,0.26596zM351.13032,203.49588c-1.32979,-3.63475 -2.63741,-7.42465 -3.92287,-11.36968c-1.28546,-3.94504 -2.63741,-8.17819 -4.05585,-12.69947c-1.41844,-4.52128 -2.39362,-7.62411 -2.92553,-9.30851c-4.25532,13.38652 -8.15603,24.46809 -11.70213,33.24468c5.67376,0.1773 10.01773,0.26596 13.03191,0.26596c4.60993,0 7.80142,-0.04433 9.57447,-0.13298" data-paper-data="{&quot;elementType&quot;:&quot;letter&quot;,&quot;baseline&quot;:66.3,&quot;baselineProportion&quot;:0.9692982456140352,&quot;fontSize&quot;:100}"></path><path d="M448.47074,239.79907c-1.77305,0.35461 -3.7234,0.53191 -5.85106,0.53191c-4.43262,0 -7.40248,-1.19681 -8.90957,-3.59043c-4.16667,-6.73759 -10.52748,-17.59752 -19.08245,-32.57979c-8.55496,-14.98227 -15.00443,-25.97518 -19.3484,-32.97872l0.66489,34.70745c0.26596,17.9078 1.15248,29.03369 2.65957,33.37766c-1.95035,0.70922 -4.07801,1.06383 -6.38298,1.06383c-3.28014,0 -5.51862,-0.57624 -6.71543,-1.72872c-1.19681,-1.15248 -1.79521,-3.10284 -1.79521,-5.85106c0,-1.41844 0.04433,-4.92021 0.13298,-10.50532c0.08865,-5.58511 0.13298,-9.92908 0.13298,-13.03191v-26.59574c0,-14.80496 -0.8422,-24.91135 -2.5266,-30.31915c2.21631,-0.70922 4.92021,-1.06383 8.1117,-1.06383c4.07801,0 7.2695,1.28546 9.57447,3.85638c4.07801,4.52128 10.19504,13.49734 18.35106,26.92819c8.15603,13.43085 14.49468,24.84486 19.01596,34.24202c-0.70922,-10.10638 -1.06383,-20.83333 -1.06383,-32.18085c0,-13.20922 -0.31028,-23.9805 -0.93085,-32.31383c2.03901,-0.26596 3.85638,-0.39894 5.45213,-0.39894c5.85106,0 8.7766,1.6844 8.7766,5.05319c0,0.53191 -0.08865,2.32713 -0.26596,5.38564c-0.1773,3.05851 -0.37677,6.87057 -0.5984,11.43617c-0.22163,4.5656 -0.33245,8.88741 -0.33245,12.96543v22.73936c0,12.5 0.31028,22.78369 0.93085,30.85106z" data-paper-data="{&quot;elementType&quot;:&quot;letter&quot;,&quot;baseline&quot;:66.7,&quot;baselineProportion&quot;:0.9955223880597015,&quot;fontSize&quot;:100}"></path></g></g><g data-paper-data="{&quot;baseline&quot;:67.3,&quot;elementType&quot;:&quot;row&quot;}"><g data-paper-data="{&quot;baselineProportion&quot;:0.9697406340057637,&quot;fontSize&quot;:100,&quot;baseline&quot;:67.3,&quot;elementType&quot;:&quot;word&quot;}"><path d="M65.29255,269.24348c0.35461,3.45745 0.53191,11.74645 0.53191,24.86702h9.9734c7.0922,0 12.14539,-0.1773 15.15957,-0.53191c0.35461,0.79787 0.53191,2.21631 0.53191,4.25532c0,2.48227 -0.44326,4.18883 -1.32979,5.11968c-0.88652,0.93085 -2.30496,1.4406 -4.25532,1.52926c-2.21631,0.08865 -5.18617,0.13298 -8.90957,0.13298h-11.17021c0,17.64184 0.31028,28.23582 0.93085,31.78191c3.7234,0.1773 6.78191,0.26596 9.17553,0.26596c14.1844,0 23.35993,-0.97518 27.5266,-2.92553c0.70922,2.03901 1.06383,4.3883 1.06383,7.04787c0,2.03901 -0.39894,3.45745 -1.19681,4.25532c-1.6844,1.32979 -9.26418,1.99468 -22.73936,1.99468c-12.05674,0 -19.41489,-0.08865 -22.07447,-0.26596c-2.74823,-0.08865 -4.58777,-0.68706 -5.51862,-1.79521c-0.93085,-1.10816 -1.39628,-3.03635 -1.39628,-5.78457c0,-1.6844 0.04433,-5.31915 0.13298,-10.90426c0.08865,-5.58511 0.13298,-9.88475 0.13298,-12.89894v-25.79787c0,-12.41135 -0.62057,-22.4734 -1.8617,-30.18617c9.66312,-0.79787 19.54787,-1.19681 29.65426,-1.19681c13.12057,0 20.52305,0.66489 22.20745,1.99468c0.79787,0.79787 1.19681,2.21631 1.19681,4.25532c0,2.65957 -0.35461,5.05319 -1.06383,7.18085c-4.87589,-1.8617 -12.58865,-2.79255 -23.1383,-2.79255c-4.25532,0 -8.7766,0.13298 -13.56383,0.39894z" data-paper-data="{&quot;elementType&quot;:&quot;letter&quot;,&quot;baseline&quot;:66.60000000000001,&quot;baselineProportion&quot;:0.997005988023952,&quot;fontSize&quot;:100}"></path><path d="M158.51064,279.21689c-1.32979,-3.36879 -3.81206,-6.16135 -7.44681,-8.37766c-3.63475,-2.21631 -7.40248,-3.32447 -11.30319,-3.32447c-4.52128,0 -8.31117,1.10816 -11.36968,3.32447c-3.05851,2.21631 -4.58777,5.49645 -4.58777,9.84043c0,2.65957 0.8422,4.89805 2.5266,6.71543c1.6844,1.81738 3.87855,3.23582 6.58245,4.25532c2.7039,1.0195 5.67376,1.97252 8.90957,2.85904c3.23582,0.88652 6.47163,1.90603 9.70745,3.05851c3.23582,1.15248 6.20567,2.5266 8.90957,4.12234c2.7039,1.59574 4.89805,3.90071 6.58245,6.91489c1.6844,3.01418 2.5266,6.60461 2.5266,10.77128c0,5.2305 -0.88652,9.77394 -2.65957,13.63032c-1.77305,3.85638 -4.23316,6.8484 -7.38032,8.97606c-3.14716,2.12766 -6.53812,3.67908 -10.17287,4.65426c-3.63475,0.97518 -7.57979,1.46277 -11.83511,1.46277c-7.35816,0 -13.89628,-1.32979 -19.61436,-3.98936c-5.71809,-2.65957 -8.57713,-5.80674 -8.57713,-9.44149c0,-3.63475 2.57092,-6.64894 7.71277,-9.04255c1.77305,3.36879 4.83156,6.20567 9.17553,8.51064c4.34397,2.30496 8.73227,3.45745 13.16489,3.45745c5.14184,0 9.41933,-1.17465 12.83245,-3.52394c3.41312,-2.34929 5.11968,-5.91755 5.11968,-10.70479c0,-2.83688 -1.13032,-5.2305 -3.39096,-7.18085c-2.26064,-1.95035 -5.07535,-3.41312 -8.44415,-4.3883c-3.36879,-0.97518 -7.04787,-2.19415 -11.03723,-3.65691c-3.98936,-1.46277 -7.66844,-3.05851 -11.03723,-4.78723c-3.36879,-1.72872 -6.18351,-4.41046 -8.44415,-8.04521c-2.26064,-3.63475 -3.39096,-8.02305 -3.39096,-13.16489c0,-7.89007 2.96986,-14.00709 8.90957,-18.35106c5.93972,-4.34397 13.29787,-6.51596 22.07447,-6.51596c3.7234,0 7.44681,0.46543 11.17021,1.39628c3.7234,0.93085 6.95922,2.43794 9.70745,4.52128c2.74823,2.08333 4.12234,4.49911 4.12234,7.24734c0,4.60993 -3.01418,7.53546 -9.04255,8.7766z" data-paper-data="{&quot;elementType&quot;:&quot;letter&quot;,&quot;baseline&quot;:67.3,&quot;baselineProportion&quot;:0.9853587115666178,&quot;fontSize&quot;:100}"></path><path d="M196.54255,316.05199v-26.59574c0,-4.96454 -0.08865,-11.61348 -0.26596,-19.94681c-12.58865,0 -20.87766,0.1773 -24.86702,0.53191c-0.26596,-1.06383 -0.39894,-2.65957 -0.39894,-4.78723c0,-2.39362 0.46543,-4.01152 1.39628,-4.85372c0.93085,-0.8422 2.41578,-1.30762 4.45479,-1.39628c2.21631,-0.08865 7.40248,-0.13298 15.55851,-0.13298h15.69149c14.89362,0 23.89184,-0.13298 26.99468,-0.39894c0.26596,1.06383 0.39894,2.61525 0.39894,4.65426c0,2.39362 -0.46543,4.01152 -1.39628,4.85372c-0.93085,0.8422 -2.41578,1.30762 -4.45479,1.39628c-2.48227,0.08865 -8.64362,0.13298 -18.48404,0.13298c-0.44326,9.57447 -0.66489,17.42021 -0.66489,23.53723v26.72872c0,11.79078 0.8422,20.47872 2.5266,26.06383c-2.48227,0.88652 -5.2305,1.32979 -8.24468,1.32979c-3.28014,0 -5.51862,-0.57624 -6.71543,-1.72872c-1.19681,-1.15248 -1.79521,-3.10284 -1.79521,-5.85106c0,-1.41844 0.04433,-4.92021 0.13298,-10.50532c0.08865,-5.58511 0.13298,-9.92908 0.13298,-13.03191z" data-paper-data="{&quot;elementType&quot;:&quot;letter&quot;,&quot;baseline&quot;:66.4,&quot;baselineProportion&quot;:0.9955022488755623,&quot;fontSize&quot;:100}"></path><path d="M291.75532,334.1371c2.03901,2.48227 4.3883,3.7234 7.04787,3.7234c0.97518,0 1.99468,-0.13298 3.05851,-0.39894c0.79787,1.8617 1.19681,3.41312 1.19681,4.65426c0,2.03901 -1.08599,3.5461 -3.25798,4.52128c-2.17199,0.97518 -4.8094,1.46277 -7.91223,1.46277c-5.14184,0 -9.70745,-2.5266 -13.69681,-7.57979c-2.74823,-3.45745 -5.62943,-8.22252 -8.64362,-14.29521c-3.01418,-6.0727 -5.36348,-11.36968 -7.04787,-15.89096c-2.03901,-0.79787 -3.05851,-2.21631 -3.05851,-4.25532c0,-1.6844 0.35461,-3.41312 1.06383,-5.18617c1.41844,0.35461 3.05851,0.53191 4.92021,0.53191c4.78723,0 8.79876,-1.4406 12.03457,-4.32181c3.23582,-2.88121 4.85372,-7.15869 4.85372,-12.83245c0,-6.29433 -1.55142,-10.66046 -4.65426,-13.0984c-3.10284,-2.43794 -7.9344,-3.65691 -14.49468,-3.65691c-2.39362,0 -5.27482,0.1773 -8.64362,0.53191c0.35461,4.96454 0.53191,13.78546 0.53191,26.46277v25.93085c0,11.70213 0.8422,20.25709 2.5266,25.66489c-1.95035,0.70922 -4.69858,1.06383 -8.24468,1.06383c-3.28014,0 -5.51862,-0.57624 -6.71543,-1.72872c-1.19681,-1.15248 -1.79521,-3.10284 -1.79521,-5.85106c0,-1.41844 0.04433,-4.92021 0.13298,-10.50532c0.08865,-5.58511 0.13298,-9.92908 0.13298,-13.03191v-26.59574c0,-12.23404 -0.57624,-22.42908 -1.72872,-30.58511c6.82624,-1.06383 13.78546,-1.59574 20.87766,-1.59574c24.91135,0 37.36702,8.99823 37.36702,26.99468c0,6.82624 -1.83954,12.47784 -5.51862,16.95479c-3.67908,4.47695 -8.5328,7.5133 -14.56117,9.10904c5.76241,12.3227 10.50532,20.25709 14.22872,23.80319z" data-paper-data="{&quot;elementType&quot;:&quot;letter&quot;,&quot;baseline&quot;:67.3,&quot;baselineProportion&quot;:0.9853587115666178,&quot;fontSize&quot;:100}"></path><path d="M340.0266,320.30731c-2.30496,0 -7.0922,-0.08865 -14.3617,-0.26596c-5.76241,14.80496 -9.30851,24.64539 -10.6383,29.52128c-7.89007,-0.88652 -11.83511,-2.7039 -11.83511,-5.45213c0,-1.24113 1.88387,-6.27216 5.6516,-15.09309c3.76773,-8.82092 8.3555,-20.05762 13.7633,-33.71011c5.4078,-13.65248 9.66312,-25.75355 12.76596,-36.30319c1.77305,-0.26596 4.07801,-0.39894 6.91489,-0.39894c2.30496,0 4.10018,0.46543 5.38564,1.39628c1.28546,0.93085 2.41578,2.81472 3.39096,5.6516c6.82624,21.2766 11.79078,35.90426 14.89362,43.88298c6.64894,17.28723 11.6578,29.25532 15.0266,35.90426c-3.36879,1.77305 -6.20567,2.65957 -8.51064,2.65957c-3.7234,0 -6.29433,-1.19681 -7.71277,-3.59043c-1.06383,-2.74823 -2.54876,-6.80408 -4.45479,-12.16755c-1.90603,-5.36348 -3.39096,-9.46365 -4.45479,-12.30053c-8.68794,0.1773 -13.96277,0.26596 -15.82447,0.26596zM352.39362,310.33391c-1.32979,-3.63475 -2.63741,-7.42465 -3.92287,-11.36968c-1.28546,-3.94504 -2.63741,-8.17819 -4.05585,-12.69947c-1.41844,-4.52128 -2.39362,-7.62411 -2.92553,-9.30851c-4.25532,13.38652 -8.15603,24.46809 -11.70213,33.24468c5.67376,0.1773 10.01773,0.26596 13.03191,0.26596c4.60993,0 7.80142,-0.04433 9.57447,-0.13298" data-paper-data="{&quot;elementType&quot;:&quot;letter&quot;,&quot;baseline&quot;:66.3,&quot;baselineProportion&quot;:0.9692982456140352,&quot;fontSize&quot;:100}"></path><path d="M449.73404,346.6371c-1.77305,0.35461 -3.7234,0.53191 -5.85106,0.53191c-4.43262,0 -7.40248,-1.19681 -8.90957,-3.59043c-4.16667,-6.73759 -10.52748,-17.59752 -19.08245,-32.57979c-8.55496,-14.98227 -15.00443,-25.97518 -19.3484,-32.97872l0.66489,34.70745c0.26596,17.9078 1.15248,29.03369 2.65957,33.37766c-1.95035,0.70922 -4.07801,1.06383 -6.38298,1.06383c-3.28014,0 -5.51862,-0.57624 -6.71543,-1.72872c-1.19681,-1.15248 -1.79521,-3.10284 -1.79521,-5.85106c0,-1.41844 0.04433,-4.92021 0.13298,-10.50532c0.08865,-5.58511 0.13298,-9.92908 0.13298,-13.03191v-26.59574c0,-14.80496 -0.8422,-24.91135 -2.5266,-30.31915c2.21631,-0.70922 4.92021,-1.06383 8.1117,-1.06383c4.07801,0 7.2695,1.28546 9.57447,3.85638c4.07801,4.52128 10.19504,13.49734 18.35106,26.92819c8.15603,13.43085 14.49468,24.84486 19.01596,34.24202c-0.70922,-10.10638 -1.06383,-20.83333 -1.06383,-32.18085c0,-13.20922 -0.31028,-23.9805 -0.93085,-32.31383c2.03901,-0.26596 3.85638,-0.39894 5.45213,-0.39894c5.85106,0 8.7766,1.6844 8.7766,5.05319c0,0.53191 -0.08865,2.32713 -0.26596,5.38564c-0.1773,3.05851 -0.37677,6.87057 -0.5984,11.43617c-0.22163,4.5656 -0.33245,8.88741 -0.33245,12.96543v22.73936c0,12.5 0.31028,22.78369 0.93085,30.85106z" data-paper-data="{&quot;elementType&quot;:&quot;letter&quot;,&quot;baseline&quot;:66.7,&quot;baselineProportion&quot;:0.9955223880597015,&quot;fontSize&quot;:100}"></path></g></g></g></g></g></svg>